<svg width="49" height="32" viewBox="0 0 49 32" fill="none" xmlns="http://www.w3.org/2000/svg">
<g filter="url(#filter0_ii_3_3420)">
<path d="M0 8C0 3.58172 3.58172 0 8 0H41C45.4183 0 49 3.58172 49 8V24C49 28.4183 45.4183 32 41 32H8C3.58172 32 0 28.4183 0 24V8Z" fill="white"/>
<path d="M13.5544 22V10.48H20.3784V12.152H15.2264V15.4H19.4184V17.08H15.2264V22H13.5544Z" fill="#111827"/>
<path d="M27.5694 22C27.0982 22 26.6681 21.8859 26.2791 21.6576C25.8901 21.4256 25.5797 21.1151 25.3478 20.7259C25.1159 20.333 25 19.9027 25 19.435C25 18.9598 25.1159 18.5276 25.3478 18.1384C25.5797 17.7493 25.8901 17.4387 26.2791 17.2067C26.6681 16.9747 27.0982 16.8587 27.5694 16.8587H28.7363V15.13H27.5694C27.0982 15.13 26.6681 15.0159 26.2791 14.7877C25.8901 14.5557 25.5797 14.247 25.3478 13.8616C25.1159 13.4724 25 13.0402 25 12.565C25 12.0935 25.1159 11.6632 25.3478 11.2741C25.5797 10.8849 25.8901 10.5762 26.2791 10.348C26.6681 10.116 27.0982 10 27.5694 10C28.0407 10 28.4708 10.116 28.8597 10.348C29.2487 10.5762 29.5591 10.8849 29.791 11.2741C30.0266 11.6632 30.1445 12.0935 30.1445 12.565V13.7268H31.8668V12.565C31.8668 12.0935 31.9808 11.6632 32.209 11.2741C32.4409 10.8849 32.7513 10.5762 33.1403 10.348C33.5292 10.116 33.9612 10 34.4362 10C34.9074 10 35.3375 10.116 35.7265 10.348C36.1155 10.5762 36.424 10.8849 36.6522 11.2741C36.8841 11.6632 37 12.0935 37 12.565C37 13.0402 36.8841 13.4724 36.6522 13.8616C36.4203 14.247 36.1099 14.5557 35.7209 14.7877C35.3357 15.0159 34.9074 15.13 34.4362 15.13H33.2749V16.8587H34.4362C34.9074 16.8587 35.3357 16.9747 35.7209 17.2067C36.1099 17.4387 36.4203 17.7493 36.6522 18.1384C36.8841 18.5276 37 18.9598 37 19.435C37 19.9027 36.8841 20.333 36.6522 20.7259C36.4203 21.1151 36.1099 21.4256 35.7209 21.6576C35.3357 21.8859 34.9074 22 34.4362 22C33.9612 22 33.5292 21.8859 33.1403 21.6576C32.7513 21.4256 32.4409 21.1151 32.209 20.7259C31.9808 20.333 31.8668 19.9027 31.8668 19.435V18.2619H30.1445V19.435C30.1445 19.9027 30.0266 20.333 29.791 20.7259C29.5591 21.1151 29.2487 21.4256 28.8597 21.6576C28.4708 21.8859 28.0407 22 27.5694 22ZM27.5694 20.5968C27.7826 20.5968 27.9771 20.5444 28.1529 20.4397C28.3324 20.3349 28.4745 20.1946 28.5792 20.0187C28.684 19.8428 28.7363 19.6483 28.7363 19.435V18.2619H27.5694C27.3562 18.2619 27.1618 18.3162 26.986 18.4247C26.8102 18.5295 26.6699 18.6698 26.5652 18.8456C26.4605 19.0215 26.4081 19.218 26.4081 19.435C26.4081 19.6483 26.4586 19.8428 26.5596 20.0187C26.6643 20.1946 26.8046 20.3349 26.9804 20.4397C27.1599 20.5444 27.3562 20.5968 27.5694 20.5968ZM27.5694 13.7268H28.7363V12.565C28.7363 12.348 28.684 12.1534 28.5792 11.9813C28.4745 11.8054 28.3324 11.6651 28.1529 11.5603C27.9771 11.4556 27.7826 11.4032 27.5694 11.4032C27.3562 11.4032 27.1618 11.4556 26.986 11.5603C26.8102 11.6651 26.6699 11.8054 26.5652 11.9813C26.4605 12.1534 26.4081 12.348 26.4081 12.565C26.4081 12.7783 26.4586 12.9747 26.5596 13.1543C26.6643 13.3302 26.8046 13.4705 26.9804 13.5753C27.1599 13.6763 27.3562 13.7268 27.5694 13.7268ZM33.2749 13.7268H34.4362C34.6494 13.7268 34.8439 13.6763 35.0196 13.5753C35.1954 13.4705 35.3338 13.3302 35.4348 13.1543C35.5395 12.9785 35.5919 12.782 35.5919 12.565C35.5919 12.348 35.5395 12.1534 35.4348 11.9813C35.3338 11.8054 35.1954 11.6651 35.0196 11.5603C34.8439 11.4556 34.6494 11.4032 34.4362 11.4032C34.2193 11.4032 34.0229 11.4556 33.8471 11.5603C33.6713 11.6651 33.5311 11.8054 33.4264 11.9813C33.3254 12.1534 33.2749 12.348 33.2749 12.565V13.7268ZM34.4362 20.5968C34.6494 20.5968 34.8439 20.5444 35.0196 20.4397C35.1954 20.3349 35.3338 20.1946 35.4348 20.0187C35.5395 19.8428 35.5919 19.6483 35.5919 19.435C35.5919 19.218 35.5395 19.0215 35.4348 18.8456C35.3338 18.6698 35.1954 18.5295 35.0196 18.4247C34.8439 18.3162 34.6494 18.2619 34.4362 18.2619H33.2749V19.435C33.2749 19.6483 33.3254 19.8428 33.4264 20.0187C33.5311 20.1946 33.6713 20.3349 33.8471 20.4397C34.0229 20.5444 34.2193 20.5968 34.4362 20.5968ZM30.1445 16.8587H31.8668V15.13H30.1445V16.8587Z" fill="#111827"/>
</g>
<defs>
<filter id="filter0_ii_3_3420" x="0" y="-1" width="49" height="33" filterUnits="userSpaceOnUse" color-interpolation-filters="sRGB">
<feFlood flood-opacity="0" result="BackgroundImageFix"/>
<feBlend mode="normal" in="SourceGraphic" in2="BackgroundImageFix" result="shape"/>
<feColorMatrix in="SourceAlpha" type="matrix" values="0 0 0 0 0 0 0 0 0 0 0 0 0 0 0 0 0 0 127 0" result="hardAlpha"/>
<feOffset dy="-1"/>
<feGaussianBlur stdDeviation="0.5"/>
<feComposite in2="hardAlpha" operator="arithmetic" k2="-1" k3="1"/>
<feColorMatrix type="matrix" values="0 0 0 0 0 0 0 0 0 0 0 0 0 0 0 0 0 0 0.04 0"/>
<feBlend mode="multiply" in2="shape" result="effect1_innerShadow_3_3420"/>
<feColorMatrix in="SourceAlpha" type="matrix" values="0 0 0 0 0 0 0 0 0 0 0 0 0 0 0 0 0 0 127 0" result="hardAlpha"/>
<feOffset dy="-1"/>
<feGaussianBlur stdDeviation="1"/>
<feComposite in2="hardAlpha" operator="arithmetic" k2="-1" k3="1"/>
<feColorMatrix type="matrix" values="0 0 0 0 0 0 0 0 0 0 0 0 0 0 0 0 0 0 0.05 0"/>
<feBlend mode="multiply" in2="effect1_innerShadow_3_3420" result="effect2_innerShadow_3_3420"/>
</filter>
</defs>
</svg>
