<svg width="26" height="26" viewBox="0 0 26 26" fill="none" xmlns="http://www.w3.org/2000/svg">
<path fill-rule="evenodd" clip-rule="evenodd" d="M7.00002 7.75C6.30966 7.75 5.75002 8.30964 5.75002 9V19C5.75002 19.6904 6.30966 20.25 7.00002 20.25H21C21.6904 20.25 22.25 19.6904 22.25 19V9C22.25 8.30964 21.6904 7.75 21 7.75H7.00002ZM4.25002 9C4.25002 7.48122 5.48124 6.25 7.00002 6.25H21C22.5188 6.25 23.75 7.48122 23.75 9V19C23.75 20.5188 22.5188 21.75 21 21.75H7.00002C5.48124 21.75 4.25002 20.5188 4.25002 19V9Z" fill="#111827"/>
<path fill-rule="evenodd" clip-rule="evenodd" d="M4.37598 8.58397C4.60575 8.23933 5.0714 8.1462 5.41604 8.37596L14 14.0986L22.584 8.37596C22.9286 8.1462 23.3943 8.23933 23.6241 8.58397C23.8538 8.92862 23.7607 9.39427 23.416 9.62404L14.416 15.624C14.1641 15.792 13.8359 15.792 13.584 15.624L4.58399 9.62404C4.23935 9.39427 4.14622 8.92862 4.37598 8.58397Z" fill="#111827"/>
<path d="M6 1C3.23858 1 1 3.23858 1 6C1 8.76142 3.23858 11 6 11C8.76142 11 11 8.76142 11 6C11 3.23858 8.76142 1 6 1Z" fill="#E03137"/>
<path d="M6 1C3.23858 1 1 3.23858 1 6C1 8.76142 3.23858 11 6 11C8.76142 11 11 8.76142 11 6C11 3.23858 8.76142 1 6 1Z" stroke="white" stroke-width="2"/>
</svg>
