<svg width="26" height="26" viewBox="0 0 26 26" fill="none" xmlns="http://www.w3.org/2000/svg">
<path fill-rule="evenodd" clip-rule="evenodd" d="M9 7.75C8.40326 7.75 7.83097 7.98705 7.40901 8.40901C6.98705 8.83097 6.75 9.40326 6.75 10V21.1893L9.46967 18.4697C9.61032 18.329 9.80109 18.25 10 18.25H19C19.5967 18.25 20.169 18.0129 20.591 17.591C21.0129 17.169 21.25 16.5967 21.25 16V10C21.25 9.40326 21.0129 8.83097 20.591 8.40901C20.169 7.98705 19.5967 7.75 19 7.75H9ZM6.34835 7.34835C7.05161 6.64509 8.00544 6.25 9 6.25H19C19.9946 6.25 20.9484 6.64509 21.6516 7.34835C22.3549 8.05161 22.75 9.00544 22.75 10V16C22.75 16.9946 22.3549 17.9484 21.6516 18.6517C20.9484 19.3549 19.9946 19.75 19 19.75H10.3107L6.53033 23.5303C6.31583 23.7448 5.99324 23.809 5.71299 23.6929C5.43273 23.5768 5.25 23.3033 5.25 23V10C5.25 9.00544 5.64509 8.05161 6.34835 7.34835Z" fill="#111827"/>
<path fill-rule="evenodd" clip-rule="evenodd" d="M9.25 11C9.25 10.5858 9.58579 10.25 10 10.25H18C18.4142 10.25 18.75 10.5858 18.75 11C18.75 11.4142 18.4142 11.75 18 11.75H10C9.58579 11.75 9.25 11.4142 9.25 11Z" fill="#111827"/>
<path fill-rule="evenodd" clip-rule="evenodd" d="M9.25 15C9.25 14.5858 9.58579 14.25 10 14.25H16C16.4142 14.25 16.75 14.5858 16.75 15C16.75 15.4142 16.4142 15.75 16 15.75H10C9.58579 15.75 9.25 15.4142 9.25 15Z" fill="#111827"/>
<path d="M6 1C3.23858 1 1 3.23858 1 6C1 8.76142 3.23858 11 6 11C8.76142 11 11 8.76142 11 6C11 3.23858 8.76142 1 6 1Z" fill="#E03137"/>
<path d="M6 1C3.23858 1 1 3.23858 1 6C1 8.76142 3.23858 11 6 11C8.76142 11 11 8.76142 11 6C11 3.23858 8.76142 1 6 1Z" stroke="white" stroke-width="2"/>
</svg>
